<?xml version="1.0" encoding="iso-8859-1"?>
<!-- Generator: Adobe Illustrator 19.0.0, SVG Export Plug-In . SVG Version: 6.00 Build 0)  -->
<svg version="1.1" id="Capa_1" xmlns="http://www.w3.org/2000/svg" xmlns:xlink="http://www.w3.org/1999/xlink" x="0px" y="0px"
	 viewBox="0 0 512 512" style="enable-background:new 0 0 512 512;" xml:space="preserve">
<g>
	<circle style="fill:#455A64;" cx="160" cy="176" r="96"/>
	<path style="fill:#455A64;" d="M160,304c-59.411,0.04-116.033,25.206-155.872,69.28C1.472,376.219,0.002,380.039,0,384v80
		c0,17.673,14.327,32,32,32h256c17.673,0,32-14.327,32-32v-80c-0.002-3.961-1.472-7.781-4.128-10.72
		C276.033,329.206,219.411,304.04,160,304z"/>
</g>
<path style="fill:#2196F3;" d="M480,16H320c-17.673,0-32,14.327-32,32v96c0,17.673,14.327,32,32,32v48
	c0.005,6.884,4.413,12.993,10.944,15.168c1.627,0.558,3.336,0.84,5.056,0.832c5.036,0,9.778-2.371,12.8-6.4L392,176h88
	c17.673,0,32-14.327,32-32V48C512,30.327,497.673,16,480,16z"/>
<g>
	<path style="fill:#010101;" d="M160,272c-53.019,0-96-42.981-96-96s42.981-96,96-96s96,42.981,96,96S213.019,272,160,272z M160,112
		c-35.346,0-64,28.654-64,64s28.654,64,64,64s64-28.654,64-64S195.346,112,160,112z"/>
	<path style="fill:#010101;" d="M288,496H32c-17.673,0-32-14.327-32-32v-80c0.002-3.961,1.472-7.781,4.128-10.72
		c77.708-86.086,210.489-92.877,296.575-15.169c5.312,4.795,10.375,9.858,15.169,15.169c2.656,2.939,4.126,6.759,4.128,10.72v80
		C320,481.673,305.673,496,288,496z M32,390.4V464h256v-73.6c-68.327-70.692-181.024-72.61-251.716-4.284
		C34.832,387.52,33.404,388.948,32,390.4z"/>
</g>
<path d="M336,240c-1.716-0.013-3.42-0.282-5.056-0.8c-6.542-2.179-10.953-8.304-10.944-15.2v-48c-17.673,0-32-14.327-32-32V48
	c0-17.673,14.327-32,32-32h160c17.673,0,32,14.327,32,32v96c0,17.673-14.327,32-32,32h-88l-43.2,57.6
	C345.778,237.629,341.036,240,336,240z M320,48v96h16c8.837,0,16,7.163,16,16v16l19.2-25.6c3.022-4.029,7.764-6.4,12.8-6.4h96V48
	H320z"/>
<g>
</g>
<g>
</g>
<g>
</g>
<g>
</g>
<g>
</g>
<g>
</g>
<g>
</g>
<g>
</g>
<g>
</g>
<g>
</g>
<g>
</g>
<g>
</g>
<g>
</g>
<g>
</g>
<g>
</g>
</svg>
