<svg xmlns="http://www.w3.org/2000/svg" width="1000" height="350" viewBox="0 0 1000 350">
  <defs>
    <style>
      .cls-1 {
        fill: #060606;
        fill-rule: evenodd;
      }
    </style>
  </defs>
  <path id="JON_LEIÑENA" data-name="JON        LEIÑENA" class="cls-1" d="M103.083,36.118H58.771L54.926,52.9H75.7L67.374,89.072q-2.934,12.852-7.579,17.3t-14,4.451a26,26,0,0,1-7.916-.977q-2.964-.975-5.591-2.014h-2.2l-4.339,18.8a82.573,82.573,0,0,0,9.4,1.312q5.247,0.459,11.776.458,17.816,0,28.066-7.69T88.962,97.031Zm90.972,7.751q-10.529-9.643-29.205-9.643a58.418,58.418,0,0,0-23.559,4.7A53.558,53.558,0,0,0,123.163,51.5a57.038,57.038,0,0,0-11.536,18.8A63.3,63.3,0,0,0,107.6,92.82q0,16.846,10.529,26.458t29.144,9.613a58.951,58.951,0,0,0,24.17-4.669,53.817,53.817,0,0,0,18.371-13.458A55.494,55.494,0,0,0,200.8,91.9a66.049,66.049,0,0,0,3.784-21.973Q204.584,53.513,194.055,43.869Zm-32.44,65.339a23.674,23.674,0,0,1-11.291,2.9q-8.486,0-13.275-5.31T132.257,91.05a52.418,52.418,0,0,1,2.564-16.937,39.285,39.285,0,0,1,6.775-12.6,29.437,29.437,0,0,1,9.491-7.9,23.8,23.8,0,0,1,10.833-2.594q8.667,0,13.337,5.524t4.669,15.289a53.026,53.026,0,0,1-2.35,16.51,42.226,42.226,0,0,1-6.5,12.6A28.694,28.694,0,0,1,161.615,109.208Zm152.46-73.09H292.4L280.329,88.73,257.47,36.118H231.229L210.26,127h21.61l14.516-62.927L273.066,127H293.11Zm3.851,223.3h-42.1l16.911-73.3H269.193L248.224,277h65.613Zm30.917-73.3L327.875,277h65.857l3.906-17.273H355.286l5.306-22.888H399.9l4.023-17.273H364.6l3.749-16.174h42.417l3.967-17.273H348.843Zm117.334,74.768H451.345l13.575-58.655h14.831l3.724-16.113H430.257l-3.723,16.113h14.831L427.79,260.886H412.958L409.235,277h53.219Zm119.139-74.768H563.643L551.569,238.73,528.71,186.118H502.469L481.5,277h21.61l14.517-62.927L544.307,277H564.35Zm-23-30.64a16.515,16.515,0,0,1-2.441,5.493,5.211,5.211,0,0,1-4.456,1.954,6.628,6.628,0,0,1-2.777-.519,20.4,20.4,0,0,1-2.9-1.74,38.55,38.55,0,0,0-6.134-3.509,16.3,16.3,0,0,0-6.623-1.251,17.769,17.769,0,0,0-13.214,5.371q-5.28,5.372-6.927,14.831h13.367a17.3,17.3,0,0,1,2.563-5.554,5.144,5.144,0,0,1,4.334-1.892,6.978,6.978,0,0,1,2.716.549,16.208,16.208,0,0,1,2.96,1.709,41.652,41.652,0,0,0,6.2,3.479,16.056,16.056,0,0,0,6.561,1.282,17.691,17.691,0,0,0,13.214-5.341q5.219-5.34,6.928-14.862H562.311Zm45.993,30.64L587.335,277h65.857l3.907-17.273H614.746l5.306-22.888h39.311l4.022-17.273H624.056l3.749-16.174h42.416l3.967-17.273H608.3Zm168.235,0H754.866L742.792,238.73l-22.859-52.612H693.692L672.724,277h21.609l14.517-62.927L735.53,277h20.043Zm74.346,0h-27.1L769.281,277h24.554l10.629-18.554H837.77L839.857,277H863.52Zm-37.145,56.03,18.6-32.445,3.715,32.445H813.74Z"/>
</svg>
