<svg xmlns="http://www.w3.org/2000/svg" width="1000" height="1000" viewBox="0 0 1000 1000">
  <defs>
    <style>
      .cls-1, .cls-2 {
        fill: #060606;
      }

      .cls-1 {
        fill-rule: evenodd;
      }

      .cls-2 {
        font-size: 125px;
        font-family: Verdana;
        font-weight: 700;
        font-style: italic;
      }
    </style>
  </defs>
  <path id="JON_LEIÑENA" data-name="JON        LEIÑENA" class="cls-1" d="M127.555,258.991H83.243L79.4,275.775h20.771l-8.323,36.169q-2.934,12.852-7.579,17.3t-14,4.451a26.032,26.032,0,0,1-7.915-.977q-2.964-.975-5.591-2.014h-2.2l-4.339,18.8a82.571,82.571,0,0,0,9.4,1.312q5.247,0.457,11.776.458,17.816,0,28.066-7.691T113.435,319.9Zm90.973,7.751Q208,257.1,189.322,257.1a58.414,58.414,0,0,0-23.559,4.7,53.57,53.57,0,0,0-18.128,12.573,57.02,57.02,0,0,0-11.535,18.8,63.283,63.283,0,0,0-4.029,22.522q0,16.846,10.529,26.459t29.144,9.613a58.948,58.948,0,0,0,24.17-4.669,53.821,53.821,0,0,0,18.372-13.458,55.486,55.486,0,0,0,10.986-18.86,66.026,66.026,0,0,0,3.784-21.973Q229.056,276.386,218.528,266.742ZM186.087,332.08a23.674,23.674,0,0,1-11.291,2.9q-8.484,0-13.275-5.31t-4.791-15.747a52.42,52.42,0,0,1,2.563-16.937,39.288,39.288,0,0,1,6.775-12.6,29.447,29.447,0,0,1,9.491-7.9,23.8,23.8,0,0,1,10.834-2.594q8.665,0,13.336,5.524T204.4,294.7a53.025,53.025,0,0,1-2.35,16.51,42.206,42.206,0,0,1-6.5,12.6A28.669,28.669,0,0,1,186.087,332.08Zm152.461-73.089H316.875L304.8,311.6l-22.859-52.612H255.7l-20.968,90.881h21.609l14.517-62.927,26.68,62.927h20.043Zm3.851,223.3H300.3l16.911-73.3H293.665L272.7,499.872h65.613Zm30.917-73.3-20.969,90.881H418.2L422.11,482.6H379.758l5.306-22.888h39.31l4.023-17.273H389.068l3.748-16.175h42.417l3.967-17.272H373.316Zm117.333,74.768H475.818L489.392,425.1h14.832l3.723-16.113H454.729L451.006,425.1h14.831l-13.575,58.655H437.43l-3.723,16.113h53.219Zm119.139-74.768H588.116L576.041,461.6l-22.859-52.612H526.941l-20.968,90.881h21.609L542.1,436.945l26.68,62.927h20.043Zm-23-30.64a16.534,16.534,0,0,1-2.441,5.493,5.21,5.21,0,0,1-4.456,1.953,6.619,6.619,0,0,1-2.777-.519,20.526,20.526,0,0,1-2.9-1.739,38.64,38.64,0,0,0-6.134-3.51,16.316,16.316,0,0,0-6.622-1.251,17.769,17.769,0,0,0-13.214,5.371q-5.28,5.372-6.928,14.832h13.367a17.3,17.3,0,0,1,2.563-5.554,5.146,5.146,0,0,1,4.334-1.893,6.979,6.979,0,0,1,2.716.55,16.149,16.149,0,0,1,2.96,1.709,41.742,41.742,0,0,0,6.2,3.479,16.073,16.073,0,0,0,6.561,1.282,17.694,17.694,0,0,0,13.215-5.341q5.219-5.34,6.927-14.862H586.783Zm45.993,30.64-20.968,90.881h65.857l3.906-17.273H639.218l5.306-22.888h39.311l4.023-17.273h-39.33l3.749-16.175h42.416l3.968-17.272H632.776Zm168.235,0H779.339L767.264,461.6l-22.858-52.612H718.164L697.2,499.872h21.609l14.517-62.927L760,499.872h20.043Zm74.347,0h-27.1l-54.5,90.881h24.553l10.629-18.555h33.307l2.086,18.555h23.663Zm-37.146,56.03,18.6-32.445,3.716,32.445h-22.32Z"/>
  <text id="Lorem_Ipsum" data-name="Lorem Ipsum" class="cls-2" x="1310.34" y="464.768">Lorem Ipsum</text>
</svg>
